<mxfile host="app.diagrams.net" agent="Mozilla/5.0 (Windows NT 10.0; Win64; x64) AppleWebKit/537.36 (KHTML, like Gecko) Chrome/128.0.0.0 Safari/537.36" version="24.8.1">
  <diagram name="Trang-1" id="m3ZfieBqCiIqkUCMt2t7">
    <mxGraphModel dx="1050" dy="603" grid="0" gridSize="10" guides="1" tooltips="1" connect="1" arrows="1" fold="1" page="1" pageScale="1" pageWidth="1169" pageHeight="827" math="0" shadow="0">
      <root>
        <mxCell id="0" />
        <mxCell id="1" parent="0" />
        <mxCell id="JlZVQrp1zc4nBB9dVKhx-4" style="edgeStyle=orthogonalEdgeStyle;rounded=0;orthogonalLoop=1;jettySize=auto;html=1;exitX=0.5;exitY=1;exitDx=0;exitDy=0;entryX=0.5;entryY=0;entryDx=0;entryDy=0;" edge="1" parent="1" source="JlZVQrp1zc4nBB9dVKhx-1" target="JlZVQrp1zc4nBB9dVKhx-2">
          <mxGeometry relative="1" as="geometry" />
        </mxCell>
        <mxCell id="JlZVQrp1zc4nBB9dVKhx-1" value="Bắt đầu" style="rounded=0;whiteSpace=wrap;html=1;" vertex="1" parent="1">
          <mxGeometry x="80" y="40" width="120" height="40" as="geometry" />
        </mxCell>
        <mxCell id="JlZVQrp1zc4nBB9dVKhx-5" style="edgeStyle=orthogonalEdgeStyle;rounded=0;orthogonalLoop=1;jettySize=auto;html=1;entryX=0.5;entryY=0;entryDx=0;entryDy=0;" edge="1" parent="1" source="JlZVQrp1zc4nBB9dVKhx-2" target="JlZVQrp1zc4nBB9dVKhx-3">
          <mxGeometry relative="1" as="geometry" />
        </mxCell>
        <mxCell id="JlZVQrp1zc4nBB9dVKhx-2" value="Thiết lập robot" style="rounded=0;whiteSpace=wrap;html=1;" vertex="1" parent="1">
          <mxGeometry x="80" y="120" width="120" height="40" as="geometry" />
        </mxCell>
        <mxCell id="JlZVQrp1zc4nBB9dVKhx-8" style="edgeStyle=orthogonalEdgeStyle;rounded=0;orthogonalLoop=1;jettySize=auto;html=1;exitX=1;exitY=0.5;exitDx=0;exitDy=0;entryX=0;entryY=0.5;entryDx=0;entryDy=0;" edge="1" parent="1" source="JlZVQrp1zc4nBB9dVKhx-3" target="JlZVQrp1zc4nBB9dVKhx-6">
          <mxGeometry relative="1" as="geometry" />
        </mxCell>
        <mxCell id="JlZVQrp1zc4nBB9dVKhx-9" style="edgeStyle=orthogonalEdgeStyle;rounded=0;orthogonalLoop=1;jettySize=auto;html=1;exitX=1;exitY=0.5;exitDx=0;exitDy=0;entryX=0;entryY=0.5;entryDx=0;entryDy=0;" edge="1" parent="1" source="JlZVQrp1zc4nBB9dVKhx-3" target="JlZVQrp1zc4nBB9dVKhx-7">
          <mxGeometry relative="1" as="geometry" />
        </mxCell>
        <mxCell id="JlZVQrp1zc4nBB9dVKhx-3" value="Hiệu chuẩn cảm biến màu" style="rounded=0;whiteSpace=wrap;html=1;" vertex="1" parent="1">
          <mxGeometry x="80" y="200" width="120" height="40" as="geometry" />
        </mxCell>
        <mxCell id="JlZVQrp1zc4nBB9dVKhx-13" style="edgeStyle=orthogonalEdgeStyle;rounded=0;orthogonalLoop=1;jettySize=auto;html=1;exitX=1;exitY=0.5;exitDx=0;exitDy=0;entryX=0;entryY=0.5;entryDx=0;entryDy=0;" edge="1" parent="1" source="JlZVQrp1zc4nBB9dVKhx-6" target="JlZVQrp1zc4nBB9dVKhx-12">
          <mxGeometry relative="1" as="geometry" />
        </mxCell>
        <mxCell id="JlZVQrp1zc4nBB9dVKhx-6" value="Đọc giá trị màu" style="rounded=0;whiteSpace=wrap;html=1;" vertex="1" parent="1">
          <mxGeometry x="320" y="120" width="120" height="40" as="geometry" />
        </mxCell>
        <mxCell id="JlZVQrp1zc4nBB9dVKhx-15" style="edgeStyle=orthogonalEdgeStyle;rounded=0;orthogonalLoop=1;jettySize=auto;html=1;exitX=1;exitY=0.5;exitDx=0;exitDy=0;entryX=0;entryY=0.5;entryDx=0;entryDy=0;" edge="1" parent="1" source="JlZVQrp1zc4nBB9dVKhx-7" target="JlZVQrp1zc4nBB9dVKhx-12">
          <mxGeometry relative="1" as="geometry" />
        </mxCell>
        <mxCell id="JlZVQrp1zc4nBB9dVKhx-7" value="Đo khoảng cách" style="rounded=0;whiteSpace=wrap;html=1;" vertex="1" parent="1">
          <mxGeometry x="320" y="280" width="120" height="40" as="geometry" />
        </mxCell>
        <mxCell id="JlZVQrp1zc4nBB9dVKhx-21" style="edgeStyle=orthogonalEdgeStyle;rounded=0;orthogonalLoop=1;jettySize=auto;html=1;exitX=0.5;exitY=1;exitDx=0;exitDy=0;entryX=0.5;entryY=0;entryDx=0;entryDy=0;" edge="1" parent="1" source="JlZVQrp1zc4nBB9dVKhx-12" target="JlZVQrp1zc4nBB9dVKhx-20">
          <mxGeometry relative="1" as="geometry" />
        </mxCell>
        <mxCell id="JlZVQrp1zc4nBB9dVKhx-12" value="Kiểm tra&lt;br&gt;màu = đỏ hoặc khoảng cách &amp;lt; 50" style="rhombus;whiteSpace=wrap;html=1;" vertex="1" parent="1">
          <mxGeometry x="520" y="160" width="320" height="120" as="geometry" />
        </mxCell>
        <mxCell id="JlZVQrp1zc4nBB9dVKhx-24" style="edgeStyle=orthogonalEdgeStyle;rounded=0;orthogonalLoop=1;jettySize=auto;html=1;exitX=0.5;exitY=1;exitDx=0;exitDy=0;entryX=1;entryY=0.5;entryDx=0;entryDy=0;" edge="1" parent="1" source="JlZVQrp1zc4nBB9dVKhx-16" target="JlZVQrp1zc4nBB9dVKhx-20">
          <mxGeometry relative="1" as="geometry" />
        </mxCell>
        <mxCell id="JlZVQrp1zc4nBB9dVKhx-16" value="Dừng 10s" style="rounded=0;whiteSpace=wrap;html=1;" vertex="1" parent="1">
          <mxGeometry x="920" y="200" width="120" height="40" as="geometry" />
        </mxCell>
        <mxCell id="JlZVQrp1zc4nBB9dVKhx-19" value="" style="edgeStyle=orthogonalEdgeStyle;rounded=0;orthogonalLoop=1;jettySize=auto;html=1;exitX=1;exitY=0.5;exitDx=0;exitDy=0;entryX=0;entryY=0.5;entryDx=0;entryDy=0;" edge="1" parent="1" source="JlZVQrp1zc4nBB9dVKhx-12" target="JlZVQrp1zc4nBB9dVKhx-16">
          <mxGeometry relative="1" as="geometry">
            <mxPoint x="840" y="220" as="sourcePoint" />
            <mxPoint x="920" y="220" as="targetPoint" />
          </mxGeometry>
        </mxCell>
        <mxCell id="JlZVQrp1zc4nBB9dVKhx-18" value="Đúng" style="text;html=1;align=center;verticalAlign=middle;resizable=0;points=[];autosize=1;strokeColor=none;fillColor=none;" vertex="1" parent="1">
          <mxGeometry x="860" y="190" width="50" height="30" as="geometry" />
        </mxCell>
        <mxCell id="JlZVQrp1zc4nBB9dVKhx-23" style="edgeStyle=orthogonalEdgeStyle;rounded=0;orthogonalLoop=1;jettySize=auto;html=1;exitX=0;exitY=0.5;exitDx=0;exitDy=0;" edge="1" parent="1" source="JlZVQrp1zc4nBB9dVKhx-20">
          <mxGeometry relative="1" as="geometry">
            <mxPoint x="220" y="220" as="targetPoint" />
          </mxGeometry>
        </mxCell>
        <mxCell id="JlZVQrp1zc4nBB9dVKhx-20" value="Dò đường đi" style="rounded=0;whiteSpace=wrap;html=1;" vertex="1" parent="1">
          <mxGeometry x="620" y="360" width="120" height="40" as="geometry" />
        </mxCell>
        <mxCell id="JlZVQrp1zc4nBB9dVKhx-22" value="Sai" style="text;html=1;align=center;verticalAlign=middle;resizable=0;points=[];autosize=1;strokeColor=none;fillColor=none;" vertex="1" parent="1">
          <mxGeometry x="680" y="310" width="40" height="30" as="geometry" />
        </mxCell>
      </root>
    </mxGraphModel>
  </diagram>
</mxfile>
